<?xml version="1.0" encoding="UTF-8"?><svg id="Layer_1" xmlns="http://www.w3.org/2000/svg" xmlns:xlink="http://www.w3.org/1999/xlink" viewBox="0 0 660 216"><defs><style>.cls-1{fill:url(#linear-gradient);}.cls-1,.cls-2{stroke-width:0px;}.cls-2{fill:#aa1c00;}</style><linearGradient id="linear-gradient" x1=".72" y1="108" x2="659.28" y2="108" gradientUnits="userSpaceOnUse"><stop offset="0" stop-color="#2f00ff"/><stop offset="1" stop-color="#fff"/></linearGradient></defs><path class="cls-1" d="m171.04,60.86c0,.75.61,1.35,1.35,1.35h18.34l.14-.02c.31-.03.6-.17.81-.38.08-.08.13-.16.18-.24l.12-.2c.07-.17.11-.34.11-.52,0-.12-.03-.21-.05-.29l-9.22-22.19c-.28-.69-1.08-1.01-1.77-.73-.33.14-.59.4-.73.73-.14.33-.14.7,0,1.04l8.38,20.09h-16.31c-.74,0-1.35.61-1.35,1.36Zm19.32-.24l-9.03-21.63c-.03-.08-.01-.15,0-.19.01-.03.05-.1.13-.13.12-.05.27,0,.32.13l9.12,21.82v.07s.06.22.06.22l-.07.11s-.09.06-.17.07h-18.34c-.13,0-.24-.1-.24-.23s.11-.24.24-.24h17.97Zm-74.03,86.07s0,0,0,0c.03-.02.06-.03.09-.05l-.09.06Zm17.87-42.17c.25.38.67.6,1.12.6h19.16c.55,0,1.04-.33,1.25-.83l10.17-24.37h31.3l2.05,4.91c.28.67,1.04,1.02,1.77.73.69-.29,1.01-1.08.73-1.77l-2.39-5.74c-.07-.16-.17-.31-.37-.5-.25-.22-.56-.33-.88-.33h-33.1c-.33,0-.64.12-.82.29l-.13.1c-.13.13-.23.28-.3.44l-10.17,24.37h-16.23L178.12,4.74h6.88l40.76,97.67h-17.13c-.75,0-1.35.61-1.35,1.35s.61,1.35,1.35,1.35h19.17c.45,0,.87-.22,1.12-.6h0c.25-.38.3-.86.12-1.27L187.15,2.86c-.21-.51-.7-.83-1.25-.83h-8.68c-.55,0-1.04.33-1.25.83l-41.89,100.38c-.17.42-.13.89.12,1.27ZM177,3.29c.04-.09.12-.15.22-.15h8.68c.1,0,.18.06.22.15l41.89,100.38c.03.07.02.16-.02.22-.05.07-.12.11-.2.11h-19.17c-.13,0-.24-.11-.24-.24s.11-.24.24-.24h18.8L185.74,3.63h-8.36l-41.69,99.89h18.64l10.5-25.12.02-.02c.05-.05.1-.07.16-.07h33.1c.05,0,.1.02.22.15l2.4,5.74c.05.12,0,.26-.22.33-.07,0-.18-.04-.22-.15l-2.34-5.6h-32.78l-10.46,25.06c-.04.09-.12.15-.22.15h-19.16c-.08,0-.16-.04-.2-.1-.05-.07-.05-.16-.02-.23L177,3.29Zm-60.66,143.39c-4.87,2.84-9.39,5.72-13.51,8.57.31-1.18.68-2.35,1.1-3.51,4.41-12.33,13.74-22.3,25.76-27.5,12.02-5.21,25.67-5.21,37.69,0-4.92,1.48-10.05,3.26-15.17,5.25-1.25-.12-2.5-.19-3.77-.19-12.94.02-24.99,6.56-32.1,17.38Zm207.32-41.56h63.35c.75,0,1.35-.61,1.35-1.35v-17.69c0-.75-.61-1.35-1.35-1.35h-31.67c-.75,0-1.35.61-1.35,1.35s.61,1.35,1.35,1.35h30.32v14.99h-60.64V4.74h60.64v14.99h-44.3c-.75,0-1.35.61-1.35,1.35v23.65c0,.75.61,1.35,1.35,1.35h36.54v14.99h-36.54c-.75,0-1.35.61-1.35,1.35s.61,1.35,1.35,1.35h37.89c.75,0,1.35-.61,1.35-1.35v-17.7c0-.75-.61-1.35-1.35-1.35h-36.54v-20.94h44.3c.75,0,1.35-.61,1.35-1.35V3.39c0-.75-.61-1.35-1.35-1.35h-63.35c-.75,0-1.35.61-1.35,1.35v100.38c0,.75.61,1.35,1.35,1.35Zm-.24-101.73c0-.13.11-.24.24-.24h63.35c.13,0,.24.11.24.24v17.69c0,.13-.11.24-.24.24h-45.41v23.17h37.65c.13,0,.24.11.24.24v17.7c0,.13-.11.24-.24.24h-37.89c-.13,0-.24-.11-.24-.24s.11-.24.24-.24h37.65v-17.21h-37.65c-.13,0-.24-.11-.24-.24v-23.65c0-.13.11-.24.24-.24h45.41V3.63h-62.87v99.9h62.87v-17.21h-31.43c-.13,0-.24-.11-.24-.24s.11-.24.24-.24h31.67c.13,0,.24.11.24.24v17.69c0,.13-.11.24-.24.24h-63.35c-.13,0-.24-.11-.24-.24V3.39Zm-46.34,102.68c14.02,0,27.2-5.46,37.12-15.38.26-.26.4-.59.4-.96s-.14-.7-.4-.96l-12.53-12.53c-.08-.08-.16-.12-.22-.15-.58-.39-1.26-.28-1.7.16-6.06,6.06-14.11,9.39-22.67,9.39s-16.62-3.34-22.67-9.39c-6.06-6.06-9.39-14.11-9.39-22.67s3.34-16.62,9.39-22.67c.53-.53.53-1.39,0-1.91-.53-.53-1.39-.53-1.92,0-6.57,6.57-10.19,15.3-10.19,24.59s3.62,18.02,10.19,24.59c6.57,6.57,15.3,10.19,24.59,10.19,8.78,0,17.14-3.29,23.59-9.27l10.64,10.64c-9.28,8.8-21.41,13.64-34.24,13.64s-25.8-5.18-35.2-14.58c-9.39-9.39-14.56-21.89-14.56-35.21s5.17-25.82,14.56-35.2c18.98-18.98,50.01-19.35,69.44-.94l-11.56,11.56c-.53.53-.53,1.39,0,1.91s1.39.53,1.91,0l12.53-12.53c.26-.26.4-.59.4-.96s-.14-.7-.4-.96c-20.47-20.47-53.77-20.47-74.24,0-20.47,20.47-20.47,53.77,0,74.24,9.92,9.92,23.1,15.38,37.12,15.38Zm-36.33-88.83c10.02-10.02,23.18-15.03,36.33-15.03s26.32,5.01,36.33,15.02c.05.05.07.11.07.17s-.02.13-.07.17l-12.53,12.53c-.09.09-.25.09-.34,0-.09-.09-.09-.25,0-.34l12.36-12.36-.41-.39c-19.84-19.23-51.87-18.97-71.41.57-9.6,9.6-14.89,22.38-14.89,35.99s5.29,26.39,14.89,35.99c9.61,9.61,22.4,14.91,35.99,14.91s25.88-5.09,35.42-14.34l.4-.39-12.21-12.21-.39.38c-6.3,6.02-14.55,9.33-23.22,9.33s-17.44-3.5-23.8-9.86c-6.36-6.36-9.86-14.81-9.86-23.8s3.5-17.44,9.86-23.8c.1-.09.25-.1.34,0s.09.25,0,.34c-6.27,6.27-9.72,14.6-9.72,23.46s3.45,17.19,9.72,23.46c6.27,6.27,14.6,9.72,23.46,9.72s17.19-3.45,23.46-9.72c.05-.05.11-.07.17-.07.02,0,.07.01.17.07l12.53,12.53h0c.06.06.07.13.07.17s0,.11-.07.17c-9.71,9.71-22.61,15.05-36.33,15.05s-26.63-5.35-36.33-15.05c-20.03-20.03-20.03-52.63,0-72.67ZM62.33,177.91c5.61-2.39,9.9-5.83,12.86-10.31,2.96-4.49,4.45-9.85,4.45-16.1s-1.46-11.63-4.37-16.24c-2.91-4.61-7.14-8.18-12.68-10.7-5.54-2.53-12.22-3.79-20.04-3.79H4.3c-1.43,0-2.59,1.16-2.59,2.59v91.5h16.71c2.86,0,5.17-2.32,5.17-5.17v-25.59c0-1.43,1.16-2.59,2.59-2.59h13.38l17.73,30.16c1.16,1.98,3.28,3.19,5.58,3.19h20.45l-21.96-36.56c.32-.13.65-.24.97-.38Zm-7.28-18.65c-1.36,2.08-3.43,3.64-6.19,4.68-2.76,1.04-6.23,1.56-10.41,1.56h-14.86v-25.89c0-1.43,1.16-2.59,2.59-2.59h12.17c4.21,0,7.71.56,10.48,1.68s4.85,2.75,6.22,4.89c1.36,2.14,2.05,4.78,2.05,7.9s-.68,5.68-2.05,7.76Zm427,44.36v11.23h-69.94v-88.91c0-2.86,2.32-5.17,5.17-5.17h64.56v11.23c0,2.86-2.32,5.17-5.17,5.17h-37.5c-2.86,0-5.17,2.32-5.17,5.17v17.24h33.91c1.43,0,2.59,1.16,2.59,2.59v11.23c0,1.43-1.16,2.59-2.59,2.59h-28.74c-2.86,0-5.17,2.32-5.17,5.17v17.29h42.88c2.86,0,5.17,2.32,5.17,5.17Zm-196.33-21.31l18.65.08c-.56,4.2-1.94,8.25-4.16,12.14s-5.18,7.36-8.9,10.42c-3.72,3.06-8.15,5.47-13.28,7.24-5.13,1.77-10.93,2.66-17.39,2.66-8.99,0-17.01-1.85-24.08-5.54-7.07-3.7-12.64-9.05-16.73-16.05-4.08-7-6.12-15.49-6.12-25.44s2.07-18.48,6.2-25.49c4.13-7,9.74-12.35,16.82-16.03,7.08-3.68,15.05-5.52,23.9-5.52,5.84,0,11.25.75,16.26,2.24,5,1.49,9.44,3.66,13.31,6.51,3.87,2.85,7.03,6.33,9.47,10.44,2.44,4.11,4.01,8.82,4.7,14.13h-18.53c-1.64,0-3.13-1.06-3.59-2.63-.44-1.49-1.05-2.87-1.82-4.14-1.21-1.98-2.77-3.67-4.67-5.08-1.9-1.4-4.09-2.47-6.57-3.22-2.48-.75-5.16-1.12-8.04-1.12-5.21,0-9.76,1.17-13.62,3.51-3.87,2.34-6.87,5.74-9,10.2-2.13,4.46-3.2,9.86-3.2,16.21s1.07,12.01,3.22,16.46c2.15,4.44,5.16,7.8,9.03,10.06,3.87,2.27,8.34,3.4,13.43,3.4,2.85,0,5.5-.34,7.94-1.03,2.44-.68,4.61-1.69,6.52-3.02,1.9-1.33,3.48-2.94,4.75-4.85.82-1.23,1.47-2.58,1.96-4.04.51-1.51,1.97-2.49,3.56-2.48Zm80.49-18.04l37.83,50.58h-22.9c-2.06,0-4-.98-5.22-2.64l-25.25-34.46c-.97-1.33-2.52-2.12-4.17-2.12h-12.19v34.04c0,2.86-2.32,5.17-5.17,5.17h-16.71v-88.91c0-2.86,2.32-5.17,5.17-5.17h16.71v38.84h8.24c1.85,0,3.56-.99,4.48-2.59l19.38-33.68c.1-.18.21-.36.33-.53.96-1.35,2.6-2.04,4.25-2.04h18.91l-23.86,40.64c-.53.9-.46,2.03.16,2.86Zm293.06,23.14c-.03,5.6-1.6,10.45-4.69,14.55-3.1,4.1-7.56,7.27-13.37,9.52-5.82,2.25-12.82,3.37-21.02,3.37s-15.2-1.13-21.21-3.4c-6.02-2.26-10.7-5.62-14.06-10.08-3.36-4.46-5.12-9.97-5.29-16.56h20.6c.23,3.07,1.21,5.63,2.92,7.67,1.72,2.04,4.03,3.57,6.93,4.6,2.9,1.03,6.19,1.54,9.86,1.54s6.74-.48,9.41-1.43c2.67-.95,4.74-2.28,6.22-3.98,1.47-1.7,2.21-3.65,2.21-5.85,0-2.06-.66-3.78-1.99-5.19-1.33-1.4-3.26-2.59-5.8-3.58s-5.65-1.88-9.32-2.68l-10.96-2.5c-8.49-1.88-15.19-4.81-20.11-8.8s-7.36-9.37-7.33-16.13c-.03-5.54,1.6-10.38,4.89-14.53,3.29-4.14,7.82-7.38,13.59-9.7,5.77-2.32,12.32-3.49,19.67-3.49s14,1.16,19.59,3.48c5.59,2.33,9.94,5.56,13.05,9.7,3.11,4.14,4.72,8.94,4.82,14.39h-20.4c-.39-3.6-2.08-6.41-5.06-8.4-2.98-2-7.03-3-12.14-3-3.48,0-6.41.44-8.8,1.32-2.39.88-4.22,2.09-5.48,3.64-1.26,1.55-1.89,3.31-1.89,5.27-.07,1.64.32,3.07,1.16,4.29.83,1.22,1.99,2.27,3.47,3.15,1.47.88,3.18,1.64,5.11,2.28,1.93.64,4,1.18,6.2,1.63l9.05,1.97c4.39.89,8.42,2.09,12.09,3.58,3.67,1.49,6.85,3.32,9.54,5.5,2.69,2.18,4.78,4.74,6.27,7.69,1.49,2.95,2.25,6.33,2.29,10.15Zm-108.63-9.49c5.61-2.39,9.9-5.83,12.86-10.31,2.96-4.49,4.45-9.85,4.45-16.1s-1.46-11.63-4.37-16.24c-2.91-4.61-7.14-8.18-12.68-10.7-5.54-2.53-12.22-3.79-20.04-3.79h-38.24c-1.43,0-2.59,1.16-2.59,2.59v91.5h16.71c2.86,0,5.17-2.32,5.17-5.17v-25.59c0-1.43,1.16-2.59,2.59-2.59h13.38l17.73,30.16c1.16,1.98,3.28,3.19,5.58,3.19h20.45l-21.96-36.56c.32-.13.65-.24.97-.38Zm-7.28-18.65c-1.36,2.08-3.43,3.64-6.19,4.68-2.76,1.04-6.23,1.56-10.41,1.56h-14.86v-25.89c0-1.43,1.16-2.59,2.59-2.59h12.17c4.21,0,7.71.56,10.49,1.68s4.85,2.75,6.22,4.89c1.37,2.14,2.05,4.78,2.05,7.9s-.68,5.68-2.05,7.76ZM80.85,105.12h17.69c.75,0,1.35-.61,1.35-1.35v-38.05h13.21c17.56,0,31.85-14.29,31.85-31.85s-14.29-31.85-31.85-31.85h-32.26c-.75,0-1.35.61-1.35,1.35v100.39c0,.75.61,1.35,1.35,1.35Zm-.24-101.74c0-.13.11-.24.24-.24h32.26c16.95,0,30.73,13.79,30.73,30.73s-13.79,30.73-30.73,30.73h-14.33v39.16c0,.13-.11.24-.24.24h-17.69c-.13,0-.24-.11-.24-.24V3.38Zm133.22,139.82h0c1.16-2.78,1.13-5.92-.08-8.68-.5-1.09-1.22-2.08-2.11-2.89-5.67-5.33-18.36-4.82-33.46-1.1-3.68.91-7.48,1.98-11.38,3.26l-2.37.84-2.39.8h-.15c-8.14,2.86-16.11,6.15-23.9,9.86-9.34,4.41-18.4,9.42-27.09,14.99-3.49,2.26-6.72,4.49-9.71,6.71-10.32,7.78-17.38,15.31-19.5,21.38-.37,1.02-.62,2.07-.72,3.16-.26,1.87.02,3.78.82,5.49h0c2.28,4.72,8.1,6.83,16.03,6.83,5.98-.11,11.93-.88,17.75-2.3,8.89,8.57,20.75,13.36,33.09,13.37,13.27-.03,25.92-5.61,34.87-15.39,8.96-9.78,13.42-22.87,12.29-36.08,9.54-7.39,15.89-14.47,18-20.24Zm-123.92,50.04c-.11-.61-.02-1.25.26-1.8.72-1.76,1.72-3.4,2.97-4.84,2.73-3.28,5.8-6.29,9.13-8.96.58,2.7,1.4,5.35,2.48,7.91.31.78.67,1.56,1.03,2.35.97,2.02,2.07,3.97,3.3,5.84h0c-11.51,2.17-18.26,1.41-19.17-.49Zm97.04-23.41c-.55,9.2-4.4,17.9-10.84,24.5-6.44,6.6-15.04,10.66-24.22,11.44s-18.35-1.77-25.81-7.18c-2.83-2-5.35-4.39-7.51-7.09-1.83-2.3-3.4-4.81-4.68-7.47h0l-.21-.46c-1.76-3.82-2.88-7.9-3.32-12.08,10.03-6.91,20.63-12.98,31.68-18.13,10.9-5.26,22.21-9.61,33.84-12.99,3.08,3.07,5.62,6.65,7.48,10.57h0v.17c1.26,2.65,2.21,5.44,2.83,8.31.02.14.02.28,0,.42.7,3.27.95,6.63.74,9.96h0Zm6.96-16.31c-.66-2.13-1.47-4.21-2.43-6.21h0c-.3-.64-.64-1.27-.95-1.91-1.38-2.59-2.99-5.04-4.82-7.34,4.21-.88,8.51-1.37,12.81-1.46h.87c3.59.09,5.73.78,6.2,1.8h0c.14.6.08,1.23-.17,1.79-1.16,3.28-5.16,7.96-11.51,13.33ZM113.11,48.02c7.8,0,14.15-6.35,14.15-14.15s-6.35-14.15-14.15-14.15c-.75,0-1.35.61-1.35,1.35s.61,1.35,1.35,1.35c6.31,0,11.45,5.13,11.45,11.45s-5.13,11.44-11.45,11.44h-13.21v-24.23c0-.75-.61-1.35-1.35-1.35s-1.35.61-1.35,1.35v25.59c0,.75.61,1.35,1.35,1.35h14.57Zm-14.81-1.35v-25.59c0-.13.11-.24.24-.24s.24.11.24.24v25.35h14.33c6.92,0,12.56-5.63,12.56-12.56s-5.63-12.56-12.56-12.56c-.13,0-.24-.11-.24-.24s.11-.24.24-.24c7.19,0,13.04,5.85,13.04,13.04s-5.85,13.04-13.04,13.04h-14.57c-.13,0-.24-.11-.24-.24Zm0,17.7c0-.13.11-.24.24-.24h14.57c16.68,0,30.25-13.57,30.25-30.25s-13.57-30.25-30.25-30.25h-32.02v99.91h17.21v-39.16Zm-1.11,0v38.05h-14.99V4.73h30.91c16.07,0,29.14,13.07,29.14,29.14s-13.07,29.14-29.14,29.14h-14.57c-.75,0-1.35.61-1.35,1.35Zm-62.12,21.35c-7.89,0-14.31-4.3-14.31-9.58,0-.74-.6-1.35-1.34-1.35l-17.28-.11c-.23-.04-.61-.01-1.01.39-.25.25-.4.6-.4.96,0,16.58,15.41,30.06,34.34,30.06s34.34-13.48,34.34-30.06c0-11.56-7.37-21.91-19.23-27l-23.05-10.04c-4-1.8-6.38-4.78-6.38-7.96,0-5.28,6.42-9.58,14.31-9.58.75,0,1.35-.61,1.35-1.35s-.61-1.35-1.35-1.35c-9.38,0-17.02,5.51-17.02,12.29,0,4.28,2.99,8.18,7.99,10.43l23.07,10.05c10.85,4.66,17.59,14.05,17.59,24.52,0,15.08-14.19,27.35-31.64,27.35s-30.77-11.61-31.6-25.99l14.68.1c.93,6.17,8.23,10.94,16.92,10.94,9.38,0,17.02-5.51,17.02-12.29,0-4.28-2.99-8.18-7.99-10.43l-23.07-10.04C10.17,51,3.43,41.6,3.43,31.14,3.43,16.06,17.62,3.79,35.07,3.79s30.78,11.61,31.6,26h-15.94c-.75,0-1.35.61-1.35,1.35s.61,1.35,1.35,1.35h17.33c.75,0,1.35-.61,1.35-1.35,0-8.03-3.58-15.58-10.1-21.27-6.49-5.67-15.1-8.79-24.25-8.79C16.13,1.08.72,14.57.72,31.14c0,11.56,7.37,21.91,19.22,27l23.05,10.03c4,1.8,6.38,4.78,6.38,7.96,0,5.28-6.42,9.58-14.31,9.58Zm15.42-9.58c0-3.63-2.63-6.99-7.04-8.98l-23.06-10.04C8.95,52.21,1.84,42.26,1.84,31.14,1.84,15.18,16.74,2.2,35.07,2.2c8.88,0,17.23,3.02,23.52,8.51,6.27,5.47,9.72,12.73,9.72,20.43,0,.13-.11.24-.24.24h-17.33c-.13,0-.24-.11-.24-.24s.11-.24.24-.24h17.09l-.02-.57c-.49-15.25-15.18-27.65-32.74-27.65S2.32,15.45,2.32,31.14c0,10.91,7,20.7,18.26,25.54l23.06,10.04c4.59,2.07,7.33,5.59,7.33,9.42,0,6.16-7.13,11.17-15.9,11.17s-15.32-4.58-15.87-10.43l-.05-.5-16.84-.11.02.58c.5,15.24,15.19,27.64,32.74,27.64s32.75-12.77,32.75-28.47c0-10.91-7-20.7-18.26-25.54l-23.06-10.04c-4.59-2.07-7.33-5.59-7.33-9.42,0-6.16,7.13-11.17,15.9-11.17.13,0,.24.11.24.24s-.11.24-.24.24c-8.5,0-15.42,4.8-15.42,10.69,0,3.63,2.63,6.99,7.04,8.98l23.06,10.04c11.44,4.91,18.56,14.87,18.56,25.98,0,15.96-14.91,28.95-33.23,28.95S1.84,91.99,1.84,76.02c0-.06.02-.13.07-.17.04-.04.07-.06.07-.08l17.42.12c.13,0,.24.11.24.24,0,5.89,6.92,10.69,15.42,10.69s15.42-4.8,15.42-10.69Zm130.41,91.42c-.44,7.94-3.79,15.46-9.44,21.12-5.65,5.65-13.18,9.01-21.11,9.45-.96.05-1.78-.7-1.78-1.67v-5.69c0-.87.68-1.6,1.55-1.65,5.64-.35,10.97-2.76,14.99-6.79h0c4.03-4.02,6.43-9.36,6.79-15.01.05-.87.78-1.55,1.65-1.55h5.68c.96,0,1.72.81,1.67,1.78Z"/><path class="cls-2" d="m269.58,39.45c-6.11,2.54-10.09,8.51-10.08,15.12h-.04c0,4.34,1.73,8.5,4.81,11.57,3.07,3.06,7.25,4.78,11.58,4.77,6.62,0,12.57-3.99,15.1-10.1,2.54-6.11,1.13-13.14-3.55-17.82-4.68-4.67-11.71-6.06-17.82-3.53Zm13.07,12.33c1.14,2.76.5,5.92-1.6,8.03-2.11,2.1-5.28,2.73-8.03,1.58-2.75-1.15-4.54-3.83-4.53-6.82h-.04c0-1.96.78-3.83,2.17-5.21,1.39-1.37,3.27-2.14,5.23-2.12,2.97,0,5.66,1.79,6.8,4.54Z"/></svg>