<?xml version="1.0" encoding="UTF-8"?>
<svg fill="#FFD9BF" width="100pt" height="100pt" version="1.1" viewBox="0 0 100 100" xmlns="http://www.w3.org/2000/svg">
 <g>
  <path d="m81.461 19.102c-0.15625-0.375-0.51563-0.62109-0.92188-0.62109h-15.5c-0.55078 0-1 0.44531-1 1 0 0.55078 0.44922 1 1 1h13.059l-17.898 17.898c-0.39062 0.39453-0.39062 1.0273 0 1.4219 0.39453 0.39062 1.0273 0.39062 1.4219 0l17.898-17.898v13.059c0 0.55078 0.44922 1 1 1 0.55469 0 1-0.44922 1-1v-15.48c0.003907-0.12891-0.015625-0.25781-0.058593-0.37891z"/>
  <path d="m21.879 20.48h13.082c0.55078 0 1-0.44922 1-1 0-0.55469-0.44922-1-1-1h-15.48c-0.55469 0-1 0.44531-1 1v15.48c0 0.55078 0.44531 1 1 1 0.55078 0 1-0.44922 1-1v-13.082l17.898 17.898v0.003906c0.39453 0.39062 1.0273 0.39062 1.4219 0 0.39062-0.39453 0.39062-1.0273 0-1.4219z"/>
  <path d="m38.359 60.219l-17.898 17.898v-13.078c0-0.55078-0.44922-1-1-1-0.55469 0-1 0.44922-1 1v15.48c0 0.26562 0.10547 0.51953 0.29297 0.70703s0.44141 0.29297 0.70703 0.29297h15.48c0.55078 0 1-0.44531 1-1 0-0.55078-0.44922-1-1-1h-13.062l17.898-17.898h0.003906c0.39062-0.39453 0.39062-1.0273 0-1.4219-0.39453-0.39062-1.0273-0.39062-1.4219 0z"/>
  <path d="m80.52 64c-0.55078 0-1 0.44922-1 1v13.078l-17.898-17.898c-0.39453-0.39063-1.0273-0.39063-1.4219 0-0.39062 0.39062-0.39062 1.0273 0 1.4219l17.898 17.898h-13.059c-0.55078 0-1 0.44922-1 1s0.44922 1 1 1h15.48c0.26562 0 0.51953-0.10547 0.70703-0.29297s0.29297-0.44141 0.29297-0.70703v-15.461c0.011719-0.26953-0.089843-0.53516-0.27734-0.73047-0.1875-0.19922-0.44922-0.30859-0.72266-0.30859z"/>
 </g>
</svg>
