<?xml version="1.0" encoding="UTF-8"?>
<svg fill="#FFD9BF" width="100pt" height="100pt" version="1.1" viewBox="0 0 100 100" xmlns="http://www.w3.org/2000/svg">
 <path d="m77.516 52.93h-10.07c-0.39453-3.2031-1.6641-6.1406-3.5586-8.5664l4.0664-4.0664c0.84375-0.84375 0.84375-2.2148 0-3.0586s-2.2148-0.84375-3.0586 0l-4.0625 4.0664c-2.4297-1.8945-5.3633-3.1602-8.5664-3.5586v-8.6289c0-1.1953-0.96875-2.1641-2.1602-2.1641-1.1953 0-2.1602 0.96875-2.1602 2.1641v8.6289c-3.2031 0.39844-6.1406 1.6641-8.5664 3.5586l-4.0625-4.0664c-0.84375-0.84375-2.2148-0.84375-3.0586 0s-0.84375 2.2148 0 3.0586l4.0664 4.0664c-1.8945 2.4258-3.1602 5.3633-3.5586 8.5664h-10.078c-1.1953 0-2.1602 0.96875-2.1602 2.1602 0 1.1953 0.96875 2.1602 2.1602 2.1602h10.07c0.39844 3.207 1.6641 6.1406 3.5586 8.5664l-4.0664 4.0664c-0.84375 0.84375-0.84375 2.2109 0 3.0547 0.42188 0.42578 0.97656 0.63281 1.5273 0.63281 0.55469 0 1.1055-0.21094 1.5273-0.63281l4.0625-4.0625c2.4258 1.8945 5.3633 3.1602 8.5664 3.5547v8.6289c0 1.1953 0.96875 2.1641 2.1602 2.1641 1.1953 0 2.1602-0.96875 2.1602-2.1641v-8.6289c3.2031-0.39453 6.1406-1.6602 8.5664-3.5547l4.0625 4.0625c0.42188 0.42578 0.97656 0.63281 1.5273 0.63281 0.55469 0 1.1055-0.21094 1.5273-0.63281 0.84375-0.84375 0.84375-2.2109 0-3.0547l-4.0664-4.0664c1.8945-2.4258 3.1602-5.3633 3.5586-8.5664h10.07c1.1953 0 2.1602-0.96875 2.1602-2.1602 0.019532-1.1914-0.94922-2.1602-2.1445-2.1602zm-27.414 15.32c-7.2578 0-13.156-5.9023-13.156-13.156s5.9023-13.156 13.156-13.156c7.2539 0 13.156 5.9023 13.156 13.156 0.003907 7.2539-5.9023 13.156-13.156 13.156z"/>
</svg>
