<?xml version="1.0" encoding="UTF-8"?>
<svg fill="#FFD9BF" width="100pt" height="100pt" version="1.1" viewBox="0 0 100 100" xmlns="http://www.w3.org/2000/svg">
 <path d="m50 20.996c-9.2266 0-17 6.8867-17 17.406 0 4.2617 2.2344 9.4492 3.5 12.375l11.656 27c0.3125 0.74219 1.0391 1.2227 1.8438 1.2227s1.5312-0.48047 1.8438-1.2227l11.656-27c1.2656-2.9258 3.5-8.1133 3.5-12.375 0-10.52-7.7734-17.406-17-17.406zm0 4c7.3438 0 13 4.7539 13 13.406 0 2.6445-1.9453 7.9805-3.1562 10.781l-9.8438 22.75-9.8438-22.75c-1.2109-2.8008-3.1562-8.1328-3.1562-10.781 0-8.6523 5.6562-13.406 13-13.406zm0 4c-4.9453 0-9 4.0547-9 9 0 4.9453 4.0547 9 9 9s9-4.0547 9-9c0-4.9453-4.0547-9-9-9zm0 4c2.7852 0 5 2.2148 5 5s-2.2148 5-5 5-5-2.2148-5-5 2.2148-5 5-5z"/>
</svg>
