<?xml version="1.0" encoding="UTF-8"?>
<svg fill="#7D7D7D" width="100pt" height="100pt" version="1.1" viewBox="0 0 100 100" xmlns="http://www.w3.org/2000/svg">
 <g>
  <path d="m98.93 7.8906c-0.035157-0.011719-3.6172-1.2617-3.6172-6.3281 0-0.86328-0.69922-1.5625-1.5625-1.5625s-1.5625 0.69922-1.5625 1.5625c0 4.9805-3.4844 6.2812-3.6172 6.3281-0.64453 0.21094-1.0781 0.8125-1.0781 1.4844 0 0.67578 0.43359 1.2734 1.0781 1.4844 0.035157 0.011719 3.6172 1.2617 3.6172 6.3281 0 0.86328 0.69922 1.5625 1.5625 1.5625s1.5625-0.69922 1.5625-1.5625c0-4.9609 3.457-6.2734 3.6328-6.3359 0.63281-0.21484 1.0586-0.8125 1.0547-1.4844-0.003906-0.66797-0.43359-1.2617-1.0703-1.4766zm-5.1797 3.4688c-0.47266-0.74219-1.0508-1.4102-1.7188-1.9844 0.66797-0.57422 1.2461-1.2422 1.7188-1.9844 0.47266 0.74219 1.0508 1.4102 1.7188 1.9844-0.66797 0.57422-1.2461 1.2422-1.7188 1.9844z"/>
  <path d="m42.188 71.875c0-0.67188-0.42969-1.2695-1.0703-1.4844-0.035157-0.011719-3.6172-1.2617-3.6172-6.3281 0-0.86328-0.69922-1.5625-1.5625-1.5625s-1.5625 0.69922-1.5625 1.5625c0 4.9805-3.4844 6.2812-3.6172 6.3281-0.64453 0.21094-1.0781 0.8125-1.0781 1.4844 0 0.67578 0.43359 1.2734 1.0781 1.4844 0.035157 0.011719 3.6172 1.2617 3.6172 6.3281 0 0.86328 0.69922 1.5625 1.5625 1.5625s1.5625-0.69922 1.5625-1.5625c0-4.9609 3.457-6.2734 3.6328-6.3359 0.62891-0.21484 1.0547-0.80859 1.0547-1.4766zm-6.25 1.9844c-0.47266-0.74219-1.0508-1.4102-1.7188-1.9844 0.66797-0.57422 1.2461-1.2422 1.7188-1.9844 0.47266 0.74219 1.0508 1.4102 1.7188 1.9844-0.66797 0.57422-1.2461 1.2422-1.7188 1.9844z"/>
  <path d="m50 0c-13.262 0-25.98 5.2695-35.355 14.645s-14.645 22.094-14.645 35.355 5.2695 25.98 14.645 35.355 22.094 14.645 35.355 14.645 25.98-5.2695 35.355-14.645 14.645-22.094 14.645-35.355c-0.015625-13.258-5.2891-25.965-14.66-35.34-9.375-9.3711-22.082-14.645-35.34-14.66zm0 96.875c-12.434 0-24.355-4.9375-33.145-13.73-8.793-8.7891-13.73-20.711-13.73-33.145s4.9375-24.355 13.73-33.145c8.7891-8.793 20.711-13.73 33.145-13.73s24.355 4.9375 33.145 13.73c8.793 8.7891 13.73 20.711 13.73 33.145-0.015625 12.426-4.957 24.344-13.746 33.129-8.7852 8.7891-20.703 13.73-33.129 13.746z"/>
  <path d="m34.375 42.188c0-3.793-2.2852-7.2109-5.7891-8.6602-3.5-1.4531-7.5352-0.64844-10.215 2.0312-2.6797 2.6797-3.4844 6.7148-2.0312 10.215 1.4492 3.5039 4.8672 5.7891 8.6602 5.7891 5.1758-0.003906 9.3711-4.1992 9.375-9.375zm-9.375 6.25c-2.5273 0-4.8086-1.5234-5.7734-3.8594-0.96875-2.3359-0.43359-5.0234 1.3555-6.8086 1.7852-1.7891 4.4727-2.3242 6.8086-1.3555 2.3359 0.96484 3.8594 3.2461 3.8594 5.7734 0 1.6562-0.66016 3.2461-1.832 4.418s-2.7617 1.832-4.418 1.832z"/>
  <path d="m64.844 70.312c-2.8438 0-5.4062 1.7148-6.4961 4.3398-1.0898 2.6289-0.48828 5.6523 1.5234 7.6641 2.0117 2.0117 5.0352 2.6133 7.6641 1.5234 2.625-1.0898 4.3398-3.6523 4.3398-6.4961-0.003906-3.8828-3.1484-7.0273-7.0312-7.0312zm0 10.938c-1.5781 0-3.0039-0.95312-3.6094-2.4102-0.60547-1.4609-0.26953-3.1406 0.84766-4.2578 1.1172-1.1172 2.7969-1.4531 4.2578-0.84766 1.457 0.60547 2.4102 2.0312 2.4102 3.6094 0 1.0352-0.41016 2.0312-1.1445 2.7617-0.73047 0.73438-1.7266 1.1445-2.7617 1.1445z"/>
  <path d="m67.188 31.25c-2.5273 0-4.8086 1.5234-5.7734 3.8594-0.96875 2.3359-0.43359 5.0234 1.3555 6.8086 1.7852 1.7891 4.4727 2.3242 6.8086 1.3555 2.3359-0.96484 3.8594-3.2461 3.8594-5.7734 0-1.6562-0.66016-3.2461-1.832-4.418s-2.7617-1.832-4.418-1.832zm0 9.375c-1.2656 0-2.4023-0.76172-2.8867-1.9297-0.48438-1.168-0.21484-2.5117 0.67578-3.4062 0.89453-0.89062 2.2383-1.1602 3.4062-0.67578 1.168 0.48438 1.9297 1.6211 1.9297 2.8867 0 0.82812-0.32812 1.625-0.91406 2.2109-0.58594 0.58594-1.3828 0.91406-2.2109 0.91406z"/>
  <path d="m32.031 21.875c2.2109 0 4.207-1.332 5.0508-3.375 0.84766-2.043 0.37891-4.3984-1.1836-5.9609s-3.918-2.0312-5.9609-1.1836c-2.043 0.84375-3.375 2.8398-3.375 5.0508 0 3.0195 2.4492 5.4688 5.4688 5.4688zm0-7.8125c0.94922 0 1.8008 0.57031 2.1641 1.4453 0.36328 0.87891 0.16406 1.8867-0.50781 2.5547-0.66797 0.67188-1.6758 0.87109-2.5547 0.50781-0.875-0.36328-1.4453-1.2148-1.4453-2.1641 0-1.293 1.0508-2.3438 2.3438-2.3438z"/>
  <path d="m81.25 59.375c0 1.8945 1.1406 3.6055 2.8945 4.332 1.75 0.72266 3.7656 0.32422 5.1094-1.0156 1.3398-1.3438 1.7383-3.3594 1.0156-5.1094-0.72656-1.7539-2.4375-2.8945-4.332-2.8945-2.5898 0-4.6875 2.0977-4.6875 4.6875zm6.25 0c0 0.63281-0.37891 1.2031-0.96484 1.4453-0.58203 0.23828-1.2539 0.10547-1.7031-0.33984-0.44531-0.44922-0.57812-1.1211-0.33984-1.7031 0.24219-0.58594 0.8125-0.96484 1.4453-0.96484 0.41406 0 0.8125 0.16406 1.1055 0.45703s0.45703 0.69141 0.45703 1.1055z"/>
  <path d="m18.828 59.523c-1.8984 0-3.6055 1.1406-4.332 2.8906-0.72656 1.7539-0.32422 3.7695 1.0156 5.1094 1.3398 1.3398 3.3555 1.7422 5.1094 1.0156 1.75-0.72266 2.8945-2.4336 2.8945-4.3281 0-2.5898-2.1016-4.6875-4.6875-4.6875zm0 6.25c-0.63281 0-1.2031-0.38281-1.4453-0.96484-0.24219-0.58594-0.10937-1.2578 0.33984-1.7031 0.44531-0.44922 1.1172-0.58203 1.7031-0.33984 0.58203 0.24219 0.96484 0.8125 0.96484 1.4453 0 0.41406-0.16797 0.80859-0.46094 1.1016-0.29297 0.29297-0.6875 0.46094-1.1016 0.46094z"/>
  <path d="m45.312 84.375c-1.8945 0-3.6055 1.1406-4.332 2.8945-0.72266 1.75-0.32422 3.7656 1.0156 5.1094 1.3438 1.3398 3.3594 1.7383 5.1094 1.0156 1.7539-0.72656 2.8945-2.4375 2.8945-4.332 0-2.5898-2.0977-4.6875-4.6875-4.6875zm0 6.25c-0.63281 0-1.2031-0.37891-1.4453-0.96484-0.23828-0.58203-0.10547-1.2539 0.33984-1.7031 0.44922-0.44531 1.1211-0.57812 1.7031-0.33984 0.58594 0.24219 0.96484 0.8125 0.96484 1.4453 0 0.41406-0.16406 0.8125-0.45703 1.1055s-0.69141 0.45703-1.1055 0.45703z"/>
  <path d="m62.5 15.625c0-3.1602-1.9023-6.0078-4.8242-7.2188-2.918-1.207-6.2773-0.53906-8.5117 1.6953-2.2344 2.2344-2.9023 5.5938-1.6953 8.5117 1.2109 2.9219 4.0586 4.8242 7.2188 4.8242 4.3125-0.003906 7.8086-3.5 7.8125-7.8125zm-7.8125 4.6875c-1.8945 0-3.6055-1.1406-4.332-2.8945-0.72266-1.75-0.32422-3.7656 1.0156-5.1094 1.3438-1.3398 3.3594-1.7383 5.1094-1.0156 1.7539 0.72656 2.8945 2.4375 2.8945 4.332 0 2.5898-2.0977 4.6875-4.6875 4.6875z"/>
  <path d="m63.281 60.156c0.41406 0 0.8125-0.16406 1.1055-0.45703l3.9062-3.9062c0.58984-0.61328 0.58203-1.5898-0.019531-2.1914-0.60156-0.60156-1.5781-0.60937-2.1914-0.019531l-3.4492 3.4492h-4.8203c-0.86328 0-1.5625 0.69922-1.5625 1.5625s0.69922 1.5625 1.5625 1.5625z"/>
  <path d="m82.812 28.125c0-0.86328-0.69922-1.5625-1.5625-1.5625s-1.5625 0.69922-1.5625 1.5625v4.6875c0 0.41406 0.16406 0.8125 0.45703 1.1055l3.9062 3.9062c0.61328 0.58984 1.5898 0.58203 2.1914-0.019531 0.60156-0.60156 0.60937-1.5781 0.019531-2.1914l-3.4492-3.4492z"/>
  <path d="m14.387 54.363-3.4492-3.4492v-4.0391c0-0.86328-0.69922-1.5625-1.5625-1.5625s-1.5625 0.69922-1.5625 1.5625v4.6875c0 0.41406 0.16406 0.8125 0.45703 1.1055l3.9062 3.9062c0.61328 0.58984 1.5898 0.58203 2.1914-0.019531 0.60156-0.60156 0.60937-1.5781 0.019531-2.1914z"/>
  <path d="m48.438 33.594h-4.8203l-3.4492-3.4492c-0.61328-0.58984-1.5898-0.58203-2.1914 0.019531-0.60156 0.60156-0.60937 1.5781-0.019531 2.1914l3.9062 3.9062c0.29297 0.29297 0.69141 0.45703 1.1055 0.45703h5.4688c0.86328 0 1.5625-0.69922 1.5625-1.5625s-0.69922-1.5625-1.5625-1.5625z"/>
 </g>
</svg>