<?xml version="1.0" encoding="UTF-8"?>
<svg fill="#FFD9BF" width="100pt" height="100pt" version="1.1" viewBox="0 0 100 100" xmlns="http://www.w3.org/2000/svg">
 <g>
  <path d="m52.254 31.98c0-1.2422-1.0078-2.2539-2.2539-2.2539-1.2422 0-2.2539 1.0078-2.2539 2.2539v36.043c0 1.2422 1.0078 2.2539 2.2539 2.2539 1.2422 0 2.2539-1.0078 2.2539-2.2539z"/>
  <path d="m40.992 36.484c1.2422 0 2.2539 1.0078 2.2539 2.2539v22.527c0 1.2422-1.0078 2.2539-2.2539 2.2539-1.2422 0-2.2539-1.0078-2.2539-2.2539v-22.527c0-1.2422 1.0078-2.2539 2.2539-2.2539z"/>
  <path d="m31.98 43.242c1.2422 0 2.2539 1.0078 2.2539 2.2539v9.0078c0 1.2422-1.0078 2.2539-2.2539 2.2539-1.2422 0-2.2539-1.0078-2.2539-2.2539v-9.0078c0-1.2422 1.0078-2.2539 2.2539-2.2539z"/>
  <path d="m59.008 36.484c1.2422 0 2.2539 1.0078 2.2539 2.2539v22.527c0 1.2422-1.0078 2.2539-2.2539 2.2539-1.2422 0-2.2539-1.0078-2.2539-2.2539v-22.527c0-1.2422 1.0078-2.2539 2.2539-2.2539z"/>
  <path d="m70.273 45.496c0-1.2422-1.0078-2.2539-2.2539-2.2539-1.2422 0-2.2539 1.0078-2.2539 2.2539v9.0078c0 1.2422 1.0078 2.2539 2.2539 2.2539 1.2422 0 2.2539-1.0078 2.2539-2.2539z"/>
 </g>
</svg>
